<svg xmlns="http://www.w3.org/2000/svg" xmlns:xlink="http://www.w3.org/1999/xlink" width="512" zoomAndPan="magnify" viewBox="0 0 384 383.999986" height="512" preserveAspectRatio="xMidYMid meet" version="1.0"><path fill="#000000" d="M 384 192 C 384 85.960938 298.039062 0 192 0 C 85.960938 0 0 85.960938 0 192 C 0 287.832031 70.210938 367.265625 162 381.667969 L 162 247.5 L 113.25 247.5 L 113.25 192 L 162 192 L 162 149.699219 C 162 101.578125 190.664062 75 234.519531 75 C 255.527344 75 277.5 78.75 277.5 78.75 L 277.5 126 L 253.289062 126 C 229.4375 126 222 140.800781 222 155.984375 L 222 192 L 275.25 192 L 266.738281 247.5 L 222 247.5 L 222 381.667969 C 313.789062 367.265625 384 287.832031 384 192 " fill-opacity="1" fill-rule="nonzero"/><path fill="#ffffff" d="M 266.738281 247.5 L 275.25 192 L 222 192 L 222 155.984375 C 222 140.800781 229.4375 126 253.289062 126 L 277.5 126 L 277.5 78.75 C 277.5 78.75 255.527344 75 234.519531 75 C 190.664062 75 162 101.578125 162 149.699219 L 162 192 L 113.25 192 L 113.25 247.5 L 162 247.5 L 162 381.667969 C 171.773438 383.203125 181.792969 384 192 384 C 202.207031 384 212.226562 383.203125 222 381.667969 L 222 247.5 L 266.738281 247.5 " fill-opacity="1" fill-rule="nonzero"/></svg>