<svg xmlns="http://www.w3.org/2000/svg" version="1.0" viewBox="0 0 384 384"><path fill="#fff" d="M384 192C384 85.96 298.04 0 192 0S0 85.96 0 192c0 95.832 70.21 175.266 162 189.668V247.5h-48.75V192H162v-42.3c0-48.122 28.664-74.7 72.52-74.7 21.007 0 42.98 3.75 42.98 3.75V126h-24.21c-23.852 0-31.29 14.8-31.29 29.984V192h53.25l-8.512 55.5H222v134.168C313.79 367.266 384 287.832 384 192"/><path fill-opacity="0" d="M266.738 247.5l8.512-55.5H222v-36.016c0-15.183 7.438-29.984 31.29-29.984h24.21V78.75S255.527 75 234.52 75C190.664 75 162 101.578 162 149.7V192h-48.75v55.5H162v134.168A193.239 193.239 0 00192 384c10.207 0 20.227-.797 30-2.332V247.5h44.738"/></svg>