<svg xmlns="http://www.w3.org/2000/svg" xmlns:xlink="http://www.w3.org/1999/xlink" width="512" zoomAndPan="magnify" viewBox="0 0 384 383.999986" height="512" preserveAspectRatio="xMidYMid meet" version="1.0"><path fill="#ffffff" d="M 192 238.585938 C 217.6875 238.585938 238.585938 217.6875 238.585938 192 C 238.585938 166.3125 217.6875 145.414062 192 145.414062 C 166.3125 145.414062 145.414062 166.3125 145.414062 192 C 145.414062 217.6875 166.3125 238.585938 192 238.585938 " fill-opacity="1" fill-rule="nonzero"/><path fill="#ffffff" d="M 192 129.988281 C 226.195312 129.988281 254.011719 157.804688 254.011719 192 C 254.011719 226.195312 226.195312 254.011719 192 254.011719 C 157.804688 254.011719 129.988281 226.195312 129.988281 192 C 129.988281 157.804688 157.804688 129.988281 192 129.988281 Z M 260.453125 112 C 266.824219 112 272 117.179688 272 123.546875 C 272 129.914062 266.824219 135.097656 260.453125 135.097656 C 254.085938 135.097656 248.902344 129.914062 248.902344 123.546875 C 248.902344 117.179688 254.085938 112 260.453125 112 Z M 88.453125 269.023438 C 90.988281 275.542969 94.015625 280.195312 98.910156 285.09375 C 103.804688 289.984375 108.460938 293.011719 114.976562 295.546875 C 119.769531 297.410156 126.941406 299.625 140.007812 300.21875 C 153.578125 300.839844 157.648438 300.972656 192 300.972656 C 226.351562 300.972656 230.421875 300.839844 243.992188 300.21875 C 257.058594 299.625 264.230469 297.410156 269.023438 295.546875 C 275.539062 293.011719 280.195312 289.984375 285.089844 285.09375 C 289.984375 280.195312 293.011719 275.542969 295.546875 269.023438 C 297.410156 264.226562 299.625 257.050781 300.21875 243.992188 C 300.839844 230.398438 300.972656 226.324219 300.972656 192 C 300.972656 157.675781 300.839844 153.601562 300.21875 140.003906 C 299.625 126.949219 297.410156 119.773438 295.546875 114.976562 C 293.011719 108.457031 289.984375 103.804688 285.089844 98.90625 C 280.195312 94.015625 275.539062 90.988281 269.023438 88.453125 C 264.230469 86.59375 257.058594 84.375 243.992188 83.78125 C 230.402344 83.160156 226.328125 83.027344 192 83.027344 C 157.671875 83.027344 153.597656 83.160156 140.007812 83.78125 C 126.941406 84.375 119.769531 86.59375 114.980469 88.453125 C 108.460938 90.988281 103.804688 94.015625 98.910156 98.910156 C 94.015625 103.804688 90.988281 108.457031 88.453125 114.976562 C 86.589844 119.773438 84.375 126.949219 83.78125 140.007812 C 83.160156 153.613281 83.027344 157.691406 83.027344 192 C 83.027344 226.308594 83.160156 230.386719 83.78125 243.992188 C 84.375 257.050781 86.589844 264.226562 88.453125 269.023438 " fill-opacity="1" fill-rule="nonzero"/><path fill="#ffffff" d="M 68.371094 139.304688 C 68.914062 127.363281 70.675781 118.140625 74.074219 109.390625 C 77.355469 100.949219 81.652344 94.351562 88.003906 88.003906 C 94.355469 81.648438 100.949219 77.355469 109.390625 74.074219 C 118.140625 70.675781 127.363281 68.914062 139.304688 68.371094 C 152.917969 67.75 157.449219 67.601562 192 67.601562 C 226.554688 67.601562 231.082031 67.75 244.699219 68.371094 C 256.636719 68.914062 265.859375 70.675781 274.609375 74.074219 C 283.050781 77.355469 289.648438 81.648438 295.996094 88.003906 C 302.347656 94.351562 306.644531 100.949219 309.925781 109.390625 C 313.324219 118.136719 315.085938 127.363281 315.628906 139.304688 C 316.25 152.917969 316.398438 157.445312 316.398438 192 C 316.398438 226.550781 316.25 231.082031 315.628906 244.699219 C 315.085938 256.636719 313.324219 265.863281 309.925781 274.609375 C 306.644531 283.050781 302.347656 289.648438 295.996094 295.996094 C 289.648438 302.347656 283.050781 306.644531 274.609375 309.925781 C 265.863281 313.324219 256.636719 315.082031 244.699219 315.628906 C 231.066406 316.25 226.53125 316.398438 192 316.398438 C 157.46875 316.398438 152.933594 316.25 139.304688 315.628906 C 127.363281 315.082031 118.140625 313.324219 109.390625 309.925781 C 100.949219 306.644531 94.351562 302.347656 88.003906 295.996094 C 81.652344 289.648438 77.355469 283.050781 74.074219 274.609375 C 70.675781 265.859375 68.914062 256.636719 68.371094 244.699219 C 67.75 231.085938 67.601562 226.558594 67.601562 192 C 67.601562 157.441406 67.75 152.914062 68.371094 139.304688 Z M 192 384 C 298.039062 384 384 298.039062 384 192 C 384 85.960938 298.039062 0 192 0 C 85.960938 0 0 85.960938 0 192 C 0 298.039062 85.960938 384 192 384 " fill-opacity="1" fill-rule="nonzero"/></svg>