<svg xmlns="http://www.w3.org/2000/svg" version="1.0" viewBox="0 0 384 384"><path fill="#fff" d="M192 238.586c25.688 0 46.586-20.899 46.586-46.586 0-25.688-20.899-46.586-46.586-46.586-25.688 0-46.586 20.899-46.586 46.586 0 25.688 20.899 46.586 46.586 46.586"/><path fill="#fff" d="M192 129.988c34.195 0 62.012 27.817 62.012 62.012S226.195 254.012 192 254.012 129.988 226.195 129.988 192s27.817-62.012 62.012-62.012zM260.453 112c6.371 0 11.547 5.18 11.547 11.547 0 6.367-5.176 11.55-11.547 11.55-6.367 0-11.55-5.183-11.55-11.55 0-6.367 5.183-11.547 11.55-11.547zm-172 157.023c2.535 6.52 5.563 11.172 10.457 16.07 4.895 4.891 9.55 7.919 16.067 10.454 4.793 1.863 11.964 4.078 25.03 4.672 13.571.62 17.641.754 51.993.754 34.352 0 38.422-.133 51.992-.754 13.067-.594 20.238-2.809 25.031-4.672 6.516-2.535 11.172-5.563 16.067-10.453 4.894-4.899 7.922-9.551 10.457-16.07 1.863-4.797 4.078-11.973 4.672-25.032.62-13.594.754-17.668.754-51.992s-.133-38.398-.754-51.996c-.594-13.055-2.809-20.23-4.672-25.027-2.535-6.52-5.563-11.172-10.457-16.07-4.895-4.891-9.55-7.919-16.067-10.454-4.793-1.86-11.964-4.078-25.03-4.672-13.59-.62-17.665-.754-51.993-.754s-38.402.133-51.992.754c-13.067.594-20.238 2.813-25.028 4.672-6.52 2.535-11.175 5.563-16.07 10.457-4.894 4.895-7.922 9.547-10.457 16.067-1.863 4.796-4.078 11.972-4.672 25.03-.62 13.606-.754 17.684-.754 51.993s.133 38.387.754 51.992c.594 13.059 2.809 20.235 4.672 25.031"/><path fill="#fff" d="M68.371 139.305c.543-11.942 2.305-21.164 5.703-29.914 3.281-8.442 7.578-15.04 13.93-21.387 6.351-6.356 12.945-10.649 21.387-13.93 8.75-3.398 17.972-5.16 29.914-5.703 13.613-.621 18.144-.77 52.695-.77 34.555 0 39.082.149 52.7.77 11.937.543 21.16 2.305 29.91 5.703 8.44 3.281 15.038 7.574 21.386 13.93 6.352 6.348 10.649 12.945 13.93 21.387 3.398 8.746 5.16 17.972 5.703 29.914.621 13.613.77 18.14.77 52.695 0 34.55-.149 39.082-.77 52.7-.543 11.937-2.305 21.163-5.703 29.91-3.281 8.44-7.578 15.038-13.93 21.386-6.348 6.352-12.945 10.649-21.387 13.93-8.746 3.398-17.972 5.156-29.91 5.703-13.633.621-18.168.77-52.699.77s-39.066-.149-52.695-.77c-11.942-.547-21.164-2.305-29.914-5.703-8.442-3.281-15.04-7.578-21.387-13.93-6.352-6.348-10.649-12.945-13.93-21.387-3.398-8.75-5.16-17.972-5.703-29.91-.621-13.613-.77-18.14-.77-52.699s.149-39.086.77-52.695zM192 384c106.04 0 192-85.96 192-192S298.04 0 192 0 0 85.96 0 192s85.96 192 192 192"/></svg>