<svg xmlns="http://www.w3.org/2000/svg" xmlns:xlink="http://www.w3.org/1999/xlink" width="512" zoomAndPan="magnify" viewBox="0 0 384 383.999986" height="512" preserveAspectRatio="xMidYMid meet" version="1.0"><path fill="#ffffff" d="M 384.007812 192.007812 C 384.007812 195.148438 383.929688 198.289062 383.773438 201.429688 C 383.621094 204.566406 383.390625 207.699219 383.082031 210.828125 C 382.773438 213.953125 382.390625 217.070312 381.929688 220.179688 C 381.46875 223.289062 380.929688 226.382812 380.316406 229.464844 C 379.703125 232.546875 379.015625 235.613281 378.253906 238.660156 C 377.488281 241.707031 376.652344 244.734375 375.738281 247.742188 C 374.828125 250.75 373.839844 253.734375 372.78125 256.691406 C 371.722656 259.648438 370.59375 262.582031 369.390625 265.484375 C 368.1875 268.386719 366.914062 271.257812 365.570312 274.097656 C 364.230469 276.9375 362.816406 279.746094 361.335938 282.515625 C 359.855469 285.289062 358.304688 288.019531 356.691406 290.714844 C 355.074219 293.410156 353.394531 296.066406 351.648438 298.679688 C 349.902344 301.289062 348.09375 303.859375 346.222656 306.382812 C 344.351562 308.90625 342.417969 311.382812 340.425781 313.8125 C 338.429688 316.242188 336.378906 318.621094 334.269531 320.949219 C 332.160156 323.277344 329.992188 325.550781 327.769531 327.773438 C 325.546875 329.996094 323.273438 332.160156 320.945312 334.269531 C 318.617188 336.382812 316.238281 338.433594 313.808594 340.425781 C 311.378906 342.421875 308.902344 344.351562 306.378906 346.222656 C 303.855469 348.097656 301.289062 349.90625 298.675781 351.652344 C 296.0625 353.398438 293.410156 355.078125 290.714844 356.691406 C 288.019531 358.308594 285.285156 359.855469 282.515625 361.335938 C 279.742188 362.820312 276.9375 364.230469 274.097656 365.574219 C 271.253906 366.917969 268.382812 368.191406 265.480469 369.394531 C 262.578125 370.597656 259.648438 371.726562 256.6875 372.785156 C 253.730469 373.84375 250.746094 374.828125 247.742188 375.742188 C 244.734375 376.652344 241.707031 377.492188 238.65625 378.253906 C 235.609375 379.019531 232.542969 379.707031 229.464844 380.320312 C 226.382812 380.933594 223.285156 381.46875 220.179688 381.929688 C 217.070312 382.390625 213.953125 382.777344 210.824219 383.085938 C 207.699219 383.390625 204.566406 383.625 201.425781 383.777344 C 198.289062 383.933594 195.148438 384.007812 192.003906 384.007812 C 188.863281 384.007812 185.722656 383.933594 182.585938 383.777344 C 179.445312 383.625 176.3125 383.390625 173.1875 383.085938 C 170.058594 382.777344 166.941406 382.390625 163.832031 381.929688 C 160.726562 381.46875 157.628906 380.933594 154.546875 380.320312 C 151.464844 379.707031 148.402344 379.019531 145.351562 378.253906 C 142.304688 377.492188 139.277344 376.652344 136.269531 375.742188 C 133.265625 374.828125 130.28125 373.84375 127.324219 372.785156 C 124.363281 371.726562 121.433594 370.597656 118.53125 369.394531 C 115.625 368.191406 112.753906 366.917969 109.914062 365.574219 C 107.074219 364.230469 104.269531 362.820312 101.496094 361.335938 C 98.726562 359.855469 95.992188 358.308594 93.296875 356.691406 C 90.601562 355.078125 87.949219 353.398438 85.335938 351.652344 C 82.722656 349.90625 80.15625 348.097656 77.628906 346.222656 C 75.105469 344.351562 72.628906 342.421875 70.203125 340.425781 C 67.773438 338.433594 65.394531 336.382812 63.066406 334.269531 C 60.738281 332.160156 58.460938 329.996094 56.242188 327.773438 C 54.019531 325.550781 51.851562 323.277344 49.742188 320.949219 C 47.632812 318.621094 45.582031 316.242188 43.585938 313.8125 C 41.59375 311.382812 39.660156 308.90625 37.789062 306.382812 C 35.917969 303.859375 34.109375 301.289062 32.363281 298.679688 C 30.617188 296.066406 28.9375 293.410156 27.320312 290.714844 C 25.707031 288.019531 24.15625 285.289062 22.675781 282.515625 C 21.195312 279.746094 19.78125 276.9375 18.4375 274.097656 C 17.09375 271.257812 15.824219 268.386719 14.621094 265.484375 C 13.417969 262.582031 12.285156 259.648438 11.226562 256.691406 C 10.167969 253.734375 9.183594 250.75 8.273438 247.742188 C 7.359375 244.734375 6.523438 241.707031 5.757812 238.660156 C 4.996094 235.613281 4.308594 232.546875 3.695312 229.464844 C 3.082031 226.382812 2.542969 223.289062 2.082031 220.179688 C 1.621094 217.070312 1.238281 213.953125 0.929688 210.828125 C 0.621094 207.699219 0.390625 204.566406 0.234375 201.429688 C 0.0820312 198.289062 0.00390625 195.148438 0.00390625 192.007812 C 0.00390625 188.867188 0.0820312 185.726562 0.234375 182.585938 C 0.390625 179.449219 0.621094 176.316406 0.929688 173.1875 C 1.238281 170.0625 1.621094 166.945312 2.082031 163.835938 C 2.542969 160.726562 3.082031 157.632812 3.695312 154.550781 C 4.308594 151.46875 4.996094 148.402344 5.757812 145.355469 C 6.523438 142.308594 7.359375 139.28125 8.273438 136.273438 C 9.183594 133.265625 10.167969 130.285156 11.226562 127.324219 C 12.285156 124.367188 13.417969 121.433594 14.621094 118.53125 C 15.824219 115.628906 17.09375 112.757812 18.4375 109.917969 C 19.78125 107.078125 21.195312 104.269531 22.675781 101.5 C 24.15625 98.726562 25.707031 95.996094 27.320312 93.300781 C 28.9375 90.605469 30.617188 87.949219 32.363281 85.339844 C 34.109375 82.726562 35.917969 80.15625 37.789062 77.632812 C 39.660156 75.109375 41.59375 72.632812 43.585938 70.203125 C 45.582031 67.773438 47.632812 65.394531 49.742188 63.066406 C 51.851562 60.738281 54.019531 58.464844 56.242188 56.242188 C 58.460938 54.019531 60.738281 51.855469 63.066406 49.746094 C 65.394531 47.632812 67.773438 45.582031 70.203125 43.589844 C 72.628906 41.597656 75.105469 39.664062 77.628906 37.792969 C 80.15625 35.917969 82.722656 34.109375 85.335938 32.363281 C 87.949219 30.621094 90.601562 28.9375 93.296875 27.324219 C 95.992188 25.707031 98.726562 24.160156 101.496094 22.679688 C 104.269531 21.195312 107.074219 19.785156 109.914062 18.441406 C 112.753906 17.097656 115.625 15.824219 118.53125 14.621094 C 121.433594 13.417969 124.363281 12.289062 127.324219 11.230469 C 130.28125 10.171875 133.265625 9.1875 136.269531 8.273438 C 139.277344 7.363281 142.304688 6.523438 145.351562 5.761719 C 148.402344 4.996094 151.464844 4.308594 154.546875 3.695312 C 157.628906 3.082031 160.726562 2.546875 163.832031 2.085938 C 166.941406 1.625 170.058594 1.238281 173.1875 0.933594 C 176.3125 0.625 179.445312 0.394531 182.585938 0.238281 C 185.722656 0.0859375 188.863281 0.0078125 192.003906 0.0078125 C 195.148438 0.0078125 198.289062 0.0859375 201.425781 0.238281 C 204.566406 0.394531 207.699219 0.625 210.824219 0.933594 C 213.953125 1.238281 217.070312 1.625 220.179688 2.085938 C 223.285156 2.546875 226.382812 3.082031 229.464844 3.695312 C 232.542969 4.308594 235.609375 4.996094 238.65625 5.761719 C 241.707031 6.523438 244.734375 7.363281 247.742188 8.273438 C 250.746094 9.1875 253.730469 10.171875 256.6875 11.230469 C 259.648438 12.289062 262.578125 13.417969 265.480469 14.621094 C 268.382812 15.824219 271.253906 17.097656 274.097656 18.441406 C 276.9375 19.785156 279.742188 21.195312 282.515625 22.679688 C 285.285156 24.160156 288.019531 25.707031 290.714844 27.324219 C 293.410156 28.9375 296.0625 30.621094 298.675781 32.363281 C 301.289062 34.109375 303.855469 35.917969 306.378906 37.792969 C 308.902344 39.664062 311.378906 41.597656 313.808594 43.589844 C 316.238281 45.582031 318.617188 47.632812 320.945312 49.746094 C 323.273438 51.855469 325.546875 54.019531 327.769531 56.242188 C 329.992188 58.464844 332.160156 60.738281 334.269531 63.066406 C 336.378906 65.394531 338.429688 67.773438 340.425781 70.203125 C 342.417969 72.632812 344.351562 75.109375 346.222656 77.632812 C 348.09375 80.15625 349.902344 82.726562 351.648438 85.339844 C 353.394531 87.949219 355.074219 90.605469 356.691406 93.300781 C 358.304688 95.996094 359.855469 98.726562 361.335938 101.5 C 362.816406 104.269531 364.230469 107.078125 365.570312 109.917969 C 366.914062 112.757812 368.1875 115.628906 369.390625 118.53125 C 370.59375 121.433594 371.722656 124.367188 372.78125 127.324219 C 373.839844 130.285156 374.828125 133.265625 375.738281 136.273438 C 376.652344 139.28125 377.488281 142.308594 378.253906 145.355469 C 379.015625 148.402344 379.703125 151.46875 380.316406 154.550781 C 380.929688 157.632812 381.46875 160.726562 381.929688 163.835938 C 382.390625 166.945312 382.773438 170.0625 383.082031 173.1875 C 383.390625 176.316406 383.621094 179.449219 383.773438 182.585938 C 383.929688 185.726562 384.007812 188.867188 384.007812 192.007812 Z M 384.007812 192.007812 " fill-opacity="1" fill-rule="nonzero"/><path fill="#000000" d="M 143.65625 99.730469 C 143.65625 100.570312 143.613281 101.402344 143.535156 102.238281 C 143.453125 103.070312 143.328125 103.894531 143.164062 104.71875 C 143.003906 105.539062 142.800781 106.347656 142.554688 107.148438 C 142.3125 107.949219 142.03125 108.738281 141.710938 109.511719 C 141.390625 110.285156 141.035156 111.039062 140.640625 111.777344 C 140.246094 112.515625 139.816406 113.234375 139.351562 113.929688 C 138.886719 114.625 138.386719 115.296875 137.855469 115.941406 C 137.324219 116.589844 136.761719 117.210938 136.171875 117.800781 C 135.582031 118.390625 134.960938 118.953125 134.3125 119.484375 C 133.667969 120.015625 132.996094 120.515625 132.300781 120.980469 C 131.605469 121.445312 130.886719 121.875 130.148438 122.269531 C 129.410156 122.664062 128.65625 123.019531 127.882812 123.339844 C 127.109375 123.660156 126.320312 123.941406 125.519531 124.183594 C 124.71875 124.429688 123.910156 124.632812 123.089844 124.792969 C 122.265625 124.957031 121.441406 125.078125 120.609375 125.160156 C 119.773438 125.242188 118.941406 125.285156 118.101562 125.285156 C 117.265625 125.285156 116.429688 125.242188 115.597656 125.160156 C 114.765625 125.078125 113.9375 124.957031 113.117188 124.792969 C 112.296875 124.632812 111.484375 124.429688 110.683594 124.183594 C 109.882812 123.941406 109.097656 123.660156 108.324219 123.339844 C 107.550781 123.019531 106.796875 122.664062 106.058594 122.269531 C 105.320312 121.875 104.601562 121.445312 103.90625 120.980469 C 103.210938 120.515625 102.539062 120.015625 101.890625 119.484375 C 101.246094 118.953125 100.625 118.390625 100.035156 117.800781 C 99.441406 117.210938 98.882812 116.589844 98.351562 115.941406 C 97.820312 115.296875 97.320312 114.625 96.855469 113.929688 C 96.390625 113.234375 95.960938 112.515625 95.566406 111.777344 C 95.171875 111.039062 94.816406 110.285156 94.496094 109.511719 C 94.175781 108.738281 93.894531 107.949219 93.648438 107.148438 C 93.40625 106.347656 93.203125 105.539062 93.039062 104.71875 C 92.878906 103.894531 92.753906 103.070312 92.671875 102.238281 C 92.589844 101.402344 92.550781 100.570312 92.550781 99.730469 C 92.550781 98.894531 92.589844 98.058594 92.671875 97.226562 C 92.753906 96.394531 92.878906 95.566406 93.039062 94.746094 C 93.203125 93.925781 93.40625 93.113281 93.648438 92.3125 C 93.894531 91.511719 94.175781 90.726562 94.496094 89.953125 C 94.816406 89.179688 95.171875 88.425781 95.566406 87.6875 C 95.960938 86.949219 96.390625 86.230469 96.855469 85.535156 C 97.320312 84.839844 97.820312 84.167969 98.351562 83.519531 C 98.882812 82.875 99.441406 82.253906 100.035156 81.664062 C 100.625 81.070312 101.246094 80.511719 101.890625 79.980469 C 102.539062 79.449219 103.210938 78.949219 103.90625 78.484375 C 104.601562 78.019531 105.320312 77.589844 106.058594 77.195312 C 106.796875 76.800781 107.550781 76.445312 108.324219 76.125 C 109.097656 75.804688 109.882812 75.523438 110.683594 75.277344 C 111.484375 75.035156 112.296875 74.832031 113.117188 74.667969 C 113.9375 74.507812 114.765625 74.382812 115.597656 74.300781 C 116.429688 74.21875 117.265625 74.179688 118.101562 74.179688 C 118.941406 74.179688 119.773438 74.21875 120.609375 74.300781 C 121.441406 74.382812 122.265625 74.507812 123.089844 74.667969 C 123.910156 74.832031 124.71875 75.035156 125.519531 75.277344 C 126.320312 75.523438 127.109375 75.804688 127.882812 76.125 C 128.65625 76.445312 129.410156 76.800781 130.148438 77.195312 C 130.886719 77.589844 131.605469 78.019531 132.300781 78.484375 C 132.996094 78.949219 133.667969 79.449219 134.3125 79.980469 C 134.960938 80.511719 135.582031 81.070312 136.171875 81.664062 C 136.761719 82.253906 137.324219 82.875 137.855469 83.519531 C 138.386719 84.167969 138.886719 84.839844 139.351562 85.535156 C 139.816406 86.230469 140.246094 86.949219 140.640625 87.6875 C 141.035156 88.425781 141.390625 89.179688 141.710938 89.953125 C 142.03125 90.726562 142.3125 91.511719 142.554688 92.3125 C 142.800781 93.113281 143.003906 93.925781 143.164062 94.746094 C 143.328125 95.566406 143.453125 96.394531 143.535156 97.226562 C 143.613281 98.058594 143.65625 98.894531 143.65625 99.730469 Z M 143.65625 99.730469 " fill-opacity="1" fill-rule="nonzero"/><path fill="#000000" d="M 96.074219 144.125 L 139.976562 144.125 L 139.976562 285.347656 L 96.074219 285.347656 Z M 96.074219 144.125 " fill-opacity="1" fill-rule="nonzero"/><path fill="#000000" d="M 167.585938 144.125 L 209.367188 144.125 L 209.367188 285.347656 L 167.585938 285.347656 Z M 167.585938 144.125 " fill-opacity="1" fill-rule="nonzero"/><path fill="#000000" d="M 169.390625 219.316406 L 211.175781 219.316406 L 211.175781 285.347656 L 169.390625 285.347656 Z M 169.390625 219.316406 " fill-opacity="1" fill-rule="nonzero"/><path fill="#000000" d="M 211.175781 219.316406 C 211.175781 219.316406 210.523438 201 215.351562 191.476562 C 215.351562 191.476562 220.183594 179.746094 235.367188 179.675781 C 235.367188 179.675781 253.175781 176.566406 258.28125 194.238281 C 258.28125 194.238281 260.214844 204.039062 260.214844 208.183594 C 260.214844 212.324219 260.355469 285.351562 260.355469 285.351562 L 304.117188 285.351562 L 304.117188 204.453125 C 304.117188 204.453125 307.289062 158.761719 279.863281 146.242188 C 279.863281 146.242188 234.765625 125.996094 210.289062 163.179688 C 210.289062 163.179688 204.953125 166.859375 204.210938 156.550781 C 203.476562 146.242188 197.21875 172.382812 197.035156 172.933594 C 196.851562 173.488281 204.210938 225.023438 204.210938 225.023438 Z M 211.175781 219.316406 " fill-opacity="1" fill-rule="nonzero"/></svg>