<svg xmlns="http://www.w3.org/2000/svg" version="1.0" viewBox="0 0 384 384"><path fill="#fff" d="M384.008 192.008c0 3.14-.078 6.281-.235 9.422-.152 3.136-.382 6.27-.691 9.398a191.31 191.31 0 01-2.766 18.637c-.613 3.082-1.3 6.148-2.062 9.195a192.915 192.915 0 01-8.863 26.824 192.34 192.34 0 01-3.82 8.614 188.28 188.28 0 01-4.235 8.418 192.152 192.152 0 01-20.91 31.296 191.326 191.326 0 01-12.656 13.96 191.215 191.215 0 01-6.825 6.498 187.402 187.402 0 01-7.136 6.156 189.512 189.512 0 01-7.43 5.797 189.591 189.591 0 01-15.664 10.469 190.332 190.332 0 01-8.2 4.644 190.479 190.479 0 01-8.417 4.238 194.487 194.487 0 01-8.618 3.82 189.88 189.88 0 01-8.793 3.391 194.76 194.76 0 01-8.945 2.957c-3.008.91-6.035 1.75-9.086 2.512a190.294 190.294 0 01-18.476 3.676c-3.11.46-6.227.847-9.356 1.156a193.412 193.412 0 01-18.82.922c-3.14 0-6.281-.074-9.418-.23-3.14-.153-6.274-.387-9.399-.692a192.886 192.886 0 01-27.835-4.832 192.871 192.871 0 01-9.082-2.512 194.76 194.76 0 01-8.946-2.957 190.527 190.527 0 01-17.41-7.21 190.48 190.48 0 01-8.418-4.24 190.332 190.332 0 01-8.2-4.644 191.323 191.323 0 01-15.668-10.469c-2.523-1.87-5-3.8-7.425-5.796a187.403 187.403 0 01-7.137-6.156 187.946 187.946 0 01-6.824-6.497 191.325 191.325 0 01-18.453-21.39 195.126 195.126 0 01-5.426-7.703 192.153 192.153 0 01-21.137-41.988 188.736 188.736 0 01-2.953-8.95 192.916 192.916 0 01-2.515-9.082 194.104 194.104 0 01-3.676-18.48 193.308 193.308 0 01-1.848-18.75c-.152-3.14-.23-6.282-.23-9.422 0-3.14.078-6.281.23-9.422a194.151 194.151 0 011.848-18.75 194.104 194.104 0 013.676-18.48 192.915 192.915 0 012.515-9.083 190.22 190.22 0 016.348-17.742 192.275 192.275 0 013.816-8.613 192.623 192.623 0 018.883-16.617 192.405 192.405 0 0116.266-23.098 191.324 191.324 0 0112.656-13.96 187.945 187.945 0 016.824-6.497 187.402 187.402 0 017.137-6.156 191.323 191.323 0 0131.293-20.91 190.477 190.477 0 018.418-4.239 190.527 190.527 0 0117.41-7.21 194.76 194.76 0 018.946-2.958 192.871 192.871 0 0118.277-4.578 192.11 192.11 0 0118.64-2.761 193.42 193.42 0 019.399-.696c3.137-.152 6.277-.23 9.418-.23 3.144 0 6.285.078 9.422.23a193.42 193.42 0 0118.754 1.848 190.295 190.295 0 0118.477 3.676c3.05.761 6.077 1.601 9.085 2.511a194.76 194.76 0 018.946 2.957 189.88 189.88 0 018.792 3.391 194.487 194.487 0 018.618 3.82 190.477 190.477 0 018.418 4.239c2.77 1.48 5.504 3.027 8.199 4.644a193.686 193.686 0 017.96 5.04 193.321 193.321 0 0115.133 11.227 187.4 187.4 0 017.137 6.155 191.214 191.214 0 016.825 6.496 191.325 191.325 0 0123.878 29.098 191.158 191.158 0 0113.922 24.578 191.607 191.607 0 017.21 17.406 192.914 192.914 0 015.473 18.031 194.101 194.101 0 013.677 18.48c.46 3.11.843 6.227 1.152 9.352.309 3.13.54 6.262.691 9.399.157 3.14.235 6.281.235 9.422zm0 0"/><path d="M143.656 99.73c0 .84-.043 1.672-.12 2.508a25.498 25.498 0 01-.372 2.48c-.16.821-.363 1.63-.61 2.43a25.375 25.375 0 01-1.913 4.63 25.08 25.08 0 01-2.785 4.164 25.356 25.356 0 01-3.543 3.542 25.08 25.08 0 01-4.165 2.786 25.5 25.5 0 01-4.628 1.914 25.484 25.484 0 01-4.91.977 25.526 25.526 0 01-5.012 0 25.309 25.309 0 01-2.48-.368c-.821-.16-1.634-.363-2.434-.61a25.5 25.5 0 01-12.332-8.242 25.08 25.08 0 01-2.786-4.164 25.5 25.5 0 01-1.07-2.265 26.58 26.58 0 01-.848-2.364c-.242-.8-.445-1.609-.609-2.43a26.738 26.738 0 01-.367-2.48 25.602 25.602 0 01-.121-2.508 25.522 25.522 0 011.097-7.418c.247-.8.528-1.585.848-2.359a25.5 25.5 0 017.395-9.973 25.478 25.478 0 016.434-3.855c.773-.32 1.558-.602 2.359-.848.8-.242 1.613-.445 2.433-.609a25.522 25.522 0 014.984-.488c.84 0 1.672.039 2.508.12.832.083 1.657.208 2.48.368.821.164 1.63.367 2.43.61.801.245 1.59.527 2.364.847a25.5 25.5 0 014.418 2.36 25.08 25.08 0 012.012 1.495 24.5 24.5 0 011.859 1.684c.59.59 1.152 1.211 1.683 1.856a25.478 25.478 0 014.7 8.793c.246.8.449 1.613.61 2.433.163.82.288 1.649.37 2.48.078.833.121 1.669.121 2.504zm0 0M96.074 144.125h43.903v141.223H96.074zm0 0M167.586 144.125h41.781v141.223h-41.781zm0 0"/><path d="M169.39 219.316h41.786v66.032H169.39zm0 0"/><path d="M211.176 219.316s-.653-18.316 4.176-27.84c0 0 4.832-11.73 20.015-11.8 0 0 17.809-3.11 22.914 14.562 0 0 1.934 9.801 1.934 13.946 0 4.14.14 77.168.14 77.168h43.762v-80.899s3.172-45.691-24.254-58.21c0 0-45.097-20.247-69.574 16.937 0 0-5.336 3.68-6.078-6.63-.734-10.308-6.992 15.833-7.176 16.384-.183.554 7.176 52.09 7.176 52.09zm0 0"/></svg>