<svg xmlns="http://www.w3.org/2000/svg" version="1.0" viewBox="0 0 384 384"><defs><clipPath id="a"><path d="M0 0h381.75v384H0zm0 0"/></clipPath></defs><g clip-path="url(#a)"><path fill="#fff" d="M190.547-2.102C90.097-2.102 7.813 76.113 0 175.5l102.48 42.8c8.684-5.995 19.18-9.503 30.461-9.503 1.016 0 2.024.027 3.012.09l45.586-66.727v-.933c0-40.149 32.344-72.82 72.102-72.82 39.754 0 72.097 32.671 72.097 72.82 0 40.14-32.343 72.835-72.097 72.835-.551 0-1.09-.011-1.641-.027l-65.004 46.828c.047.867.063 1.73.063 2.582 0 30.145-24.278 54.68-54.118 54.68-26.195 0-48.109-18.89-53.062-43.902l-73.3-30.61c22.698 81.063 96.437 140.489 183.968 140.489 105.61 0 191.203-86.465 191.203-193.11 0-106.644-85.594-193.094-191.203-193.094zM119.82 290.891l-23.484-9.805c4.156 8.758 11.367 16.086 20.926 20.101 20.664 8.7 44.488-1.195 53.11-22.07 4.16-10.12 4.19-21.265.058-31.402-4.114-10.133-11.914-18.04-21.922-22.25-9.95-4.164-20.598-4.012-29.953-.445l24.27 10.132c15.241 6.414 22.445 24.086 16.093 39.485-6.336 15.386-23.852 22.672-39.098 16.254zm181.871-149.668c0-26.75-21.566-48.532-48.046-48.532-26.5 0-48.047 21.782-48.047 48.532 0 26.754 21.547 48.511 48.047 48.511 26.48 0 48.046-21.757 48.046-48.511zm-84.062-.082c0-20.13 16.168-36.446 36.09-36.446 19.937 0 36.101 16.317 36.101 36.446 0 20.136-16.164 36.449-36.101 36.449-19.922 0-36.09-16.313-36.09-36.45zm0 0"/></g></svg>