<svg xmlns="http://www.w3.org/2000/svg" version="1.0" viewBox="0 0 384 384"><path fill="#fff" d="M384 192c0 106.078-85.922 192-192 192S0 298.078 0 192 85.922 0 192 0s192 85.922 192 192zM156.863 293.281c85.153 0 131.711-70.562 131.711-131.715 0-2.015 0-4.03-.094-5.949a94.868 94.868 0 0023.137-24c-8.258 3.649-17.183 6.145-26.594 7.293 9.602-5.758 16.899-14.781 20.352-25.629A93.822 93.822 0 01276 124.511c-8.45-9.023-20.45-14.59-33.793-14.59-25.535 0-46.27 20.735-46.27 46.27 0 3.649.383 7.2 1.247 10.563-38.496-1.922-72.575-20.356-95.422-48.387a46.43 46.43 0 00-6.242 23.235 46.087 46.087 0 0020.64 38.496c-7.586-.196-14.687-2.305-20.93-5.762v.574c0 22.465 15.938 41.09 37.153 45.41a46.203 46.203 0 01-12.192 1.633c-2.976 0-5.855-.289-8.734-.863 5.856 18.43 22.941 31.773 43.2 32.156-15.84 12.387-35.81 19.777-57.505 19.777-3.746 0-7.39-.191-11.039-.671 20.254 13.25 44.64 20.93 70.75 20.93"/></svg>