<svg xmlns="http://www.w3.org/2000/svg" version="1.0" viewBox="0 0 384 384"><path fill="#fff" d="M192 0C85.941 0 0 85.941 0 192s85.941 192 192 192 192-85.941 192-192C383.832 85.941 297.89 0 192 0zm110.547 245.695c-2.164 14.13-14.465 24.434-28.762 24.434H110.047c-14.297 0-26.598-10.305-28.758-24.434-1.996-13.132-3.992-31.422-4.156-53.863.164-22.441 1.996-40.559 4.156-53.86 2.16-14.128 14.461-24.433 28.758-24.433h163.738c14.297 0 26.598 10.305 28.762 24.434 1.992 13.132 3.988 31.418 4.156 53.859-.168 22.441-2.164 40.73-4.156 53.863zm0 0"/><path fill="#fff" d="M167.73 160.746v62.34L225.746 192zm0 0"/></svg>