<svg xmlns="http://www.w3.org/2000/svg" xmlns:xlink="http://www.w3.org/1999/xlink" width="512" zoomAndPan="magnify" viewBox="0 0 384 383.999986" height="512" preserveAspectRatio="xMidYMid meet" version="1.0"><path fill="#000000" d="M 192 0 C 85.941406 0 0 85.941406 0 192 C 0 298.058594 85.941406 384 192 384 C 298.058594 384 384 298.058594 384 192 C 383.832031 85.941406 297.890625 0 192 0 Z M 302.546875 245.695312 C 300.382812 259.824219 288.082031 270.128906 273.785156 270.128906 L 110.046875 270.128906 C 95.75 270.128906 83.449219 259.824219 81.289062 245.695312 C 79.292969 232.5625 77.296875 214.273438 77.132812 191.832031 C 77.296875 169.390625 79.128906 151.273438 81.289062 137.972656 C 83.449219 123.84375 95.75 113.539062 110.046875 113.539062 L 273.785156 113.539062 C 288.082031 113.539062 300.382812 123.84375 302.546875 137.972656 C 304.539062 151.105469 306.535156 169.390625 306.703125 191.832031 C 306.535156 214.273438 304.539062 232.5625 302.546875 245.695312 Z M 302.546875 245.695312 " fill-opacity="1" fill-rule="nonzero"/><path fill="#000000" d="M 167.730469 160.746094 L 167.730469 223.085938 L 225.746094 192 Z M 167.730469 160.746094 " fill-opacity="1" fill-rule="nonzero"/></svg>